<?xml version="1.0" encoding="UTF-8"?>
<svg id="Layer_2" data-name="Layer 2" xmlns="http://www.w3.org/2000/svg" viewBox="0 0 429.29 187.3">
  <defs>
    <style>
      .cls-1, .cls-2 {
        fill: #fff;
      }

      .cls-3 {
        fill: #002e6d;
      }

      .cls-2 {
        stroke: #002e6d;
        stroke-miterlimit: 10;
        stroke-width: 4.55px;
      }
    </style>
  </defs>
  <g id="Layer_2-2" data-name="Layer 2">
    <g>
      <path class="cls-3" d="M155.65,122.89c-9.1,8.61-17.69,14.05-23.86,15.05-.97.15-1.88.23-2.73.23.93,1.48,2.54,2.36,4.95,2.46,2.21-1.27,4.01-2.47,5.27-3.49.72-.63,1.45-.76,1.93-.76.83,0,1.59.38,2.09,1.04.13.17.17.4.26.6,4.42-2.29,9.66-6.09,15.31-11.34-1.26-1.09-2.36-2.34-3.22-3.78Z"/>
      <path class="cls-3" d="M103.46,145.81c5.15-.83,10.94-2.32,18.49-10.63-1.03-1.33-1.61-3.05-1.73-5.12-2.17,2.67-4,4.49-5.34,5.14-6.36,5.84-11.64,7.29-16.58,8.08-.6.1-1.17.13-1.73.15,1.39,2.1,3.73,2.91,6.87,2.38Z"/>
      <path class="cls-3" d="M187.47,85.81c.35-.54.78-1.05,1.28-1.51,2.47-2.74,5.13-4.9,7.84-6.15.06-.28.12-.55.16-.88.17-1.38-.08-2.21-.34-2.51-.06-.07-.25-.28-.95-.28-.22,0-.46.02-.72.06-9.24,1.47-19.83,18.59-21.29,30.77-.39,3.34.17,5.98,1.63,7.61.46.51,1.03.91,1.67,1.25-.19-1.3-.26-2.7-.07-4.31.92-7.71,5.23-17.24,10.79-24.07Z"/>
      <path class="cls-3" d="M107.69,54.01l-2.43,5.37c2.31-.93,4.46-1.94,6.52-2.99,9.52-21.02,17.33-36.05,29.13-38.22-.15-.77-.41-1.4-.78-1.82-.2-.22-.81-.91-2.62-.91-.44,0-.91.04-1.41.12-11.08,1.79-18.76,17.06-28.41,38.45Z"/>
      <path class="cls-3" d="M23.18,169.21c.42,0,.9-.05,1.45-.14.89-.14,1.93-.45,3.07-.9,1.51-.63,2.64-1.15,4.44-2.36,1.41-.93,2.85-2.05,4.29-3.42-.75-.03-1.46-.05-2.14-.05-1.82,0-3.39.11-4.79.33-5.15.85-7.26,3.33-7.5,5.34-.09.75.06.98.06.98,0,0,.24.2,1.13.2Z"/>
      <path class="cls-3" d="M366.99,50.26c-1.4,12-18.81,28.8-34.81,38.13-.46.71-.74,1.35-.82,1.91-.01.13.03.23.04.35.54.07,1.06.16,1.67.16.92,0,1.92-.09,2.98-.26.81-.13,1.65-.35,2.48-.57,14.74-9.14,30.44-24.6,31.68-35.18.42-3.45-.69-6.56-3.37-8.47.22,1.25.31,2.55.15,3.92Z"/>
      <path class="cls-3" d="M408.16,41c-.15-.95-1.4-1.53-3.27-1.53-1.35,0-2.94.3-4.72.89-7.14,2.36-8.06,5.09-8.06,7.21,0,1.56,1.37,3.27,3.22,4.94,0-.04-.01-.08-.01-.12,0-5.13,4.59-7.74,9.65-9.41,1.06-.35,2.01-.57,2.91-.73.23-.46.33-.9.27-1.24Z"/>
      <path class="cls-3" d="M373.51,76.69c-1.71,2.62-1.87,4.46-1.42,5.31.42.78,1.68,1.24,3.46,1.32.36-1.04.91-2.14,1.67-3.27.99-1.38,1.26-1.76,1.79-2.54,1.68-2.52-1.9-4.06-5.49-.82Z"/>
      <path class="cls-3" d="M327.77,78.95c1.11-.97,2.15-1.91,3.16-2.85,3.51-9.29,10.02-18.25,16.1-21.88.17-.62.3-1.2.37-1.73.16-1.45-.07-2.15-.24-2.34-.12-.13-.47-.15-.62-.15-.19,0-.38.02-.6.05-7.26,1.16-19.03,16.96-20.66,30.92-.02.2-.04.39-.06.59.66-.85,1.51-1.72,2.55-2.61Z"/>
      <path class="cls-3" d="M324.24,25.56c-.82,7.04-8.44,14.54-15.97,15.75-.58.1-1.14.13-1.7.15,1.23,1.92,3.73,2.91,6.85,2.39,6.84-1.09,13.4-8.13,14.05-13.73.37-3.23-.98-5.21-3.21-6.01,0,.47.04.92-.02,1.45Z"/>
      <path class="cls-3" d="M314.74,50.99c-.27.05-1.53.25-3.15.5-4.43,10.37-14.93,35.1-18.76,44.23l-.23.56c-.27.65-.6,1.45-.82,2.08,1.28-.78,3.63-2.57,7.72-6.5,5.44-12.87,13.99-32.99,16.68-39.26.53-1.25-.56-1.77-1.45-1.6Z"/>
      <path class="cls-3" d="M129.4,80.61c-.46.07-1.79.28-3.39.53-6.45,13.77-16.15,36.17-17.19,44.83-.12,1.04-.11,1.72-.06,2.14,1.18-.71,3.03-2.77,5.3-5.76,4.11-12.95,13.09-32.59,16.69-40.15.39-.78-.03-1.81-1.35-1.59Z"/>
      <path class="cls-2" d="M300.25,32.83c.73-5.99,7.83-12.77,14.24-13.81,4.57-.75,8.01,1.31,7.45,6.28-.65,5.59-7.21,12.64-14.05,13.73-4.79.8-8.17-1.93-7.64-6.19ZM396.36,30.79c-25.96,9.38-29.49,26.16-11.49,37.57,8.7,5.56,7.35,14.84-5.17,16.97-10.42,1.79-12.28-3.74-8.02-10.1.99-1.38,1.26-1.76,1.79-2.54,1.81-2.71-2.49-4.37-6.33-.03-11.31,12.71-22.12,18.84-30.73,20.19-8.95,1.47-14.56-2.69-13.44-12.14,1.64-14,13.66-31.5,22.6-32.93,2.92-.48,4.57,1.07,4.13,4.98-.7,5.58-6.12,15.55-20.41,27.95-2.29,1.96-3.27,3.55-3.45,4.77-.15,1.45.96,2.27,2.63,2,.65-.09,1.48-.43,2.35-.97,15.33-8.9,32.57-25.41,33.87-36.51.78-6.39-3.5-11.78-13.86-10.08-23.11,3.67-41.17,27.35-43.35,46.08-.03.41,0,.78-.03,1.18-8.36,8.73-14,13.63-16.56,14.07-1.43.22-1.82-.65-1.64-2.3.14-.99.84-2.59,1.45-4.09,4.21-10.04,16.63-39.27,19.97-47.07.53-1.25-.56-1.77-1.45-1.6-.7.14-7.72,1.23-11.24,1.67-1.79.29-2.27.97-2.61,1.89-2.3,5.53-9.74,23.89-14.65,35.08-12.3,14.24-22,20.48-24.9,20.94-3.92.65-5.66-1.91-6.41-7.86-.05-.99-.31-2.56-.24-3.19.08-.6.51-.87,1.86-1.91,0,0,25.77-18.3,27.73-34.74.34-3.05-2.15-6.11-7.96-5.2-7.08,1.16-18.84,8.66-36.92,30.76,0,0,17.12-40.13,26.96-63.47.22-.55-.22-1.43-1.14-1.26-.97.14-10.23,1.52-11.75,1.72-1.52.22-2.15,1.3-2.42,1.96-4.86,11.2-19.65,47.68-30.71,73.65-10.81,12.13-21.78,19.68-30.2,21.03-8.92,1.42-14.56-2.73-13.46-12.19,1.55-12.96,12.62-31.11,23.23-32.79,4.18-.67,5.03,2.42,4.67,5.3-.7,5.99-4.48,6.97-5.53,7.14-.19.03-.65.12-1.06.17-2.08.34-3.53,2.39-3.7,3.82-.31,2.66,2.22,5.32,7.21,4.52,8.13-1.31,16.53-10.32,17.51-18.74.89-7.45-5.37-11.7-14.5-10.25-22.05,3.53-41.05,26.37-43.37,46.13-.05.5,0,.9,0,1.38-8.29,8.59-12.98,12.36-15.48,12.77-1.45.21-1.94-.9-1.74-2.56.65-5.25,17.24-41.42,21.13-49.83.51-1.14-.67-1.6-1.33-1.45-.68.14-10.28,1.53-11.51,1.76-1.16.19-1.89,1.13-2.1,1.59-10.78,23.38-30.25,55.71-35.97,56.62-1.69.26-2.54-1.21-2.11-4.93,1.26-10.51,14.21-38.88,18.71-48.33.39-.78-.03-1.81-1.35-1.59-1.36.22-10.45,1.6-11.49,1.81-1.04.17-1.72.82-2.1,1.57-3.36,7.37-19.49,41.78-20.52,50.39-.99,8.66,2.15,12.43,8.17,11.43,6.89-1.11,14.94-3.39,26.82-21.68-1.16,3.04-1.86,5.54-2.13,8.03-.73,5.97,1.71,9.43,8.8,8.3,5.78-.94,14.9-6.68,24.95-16.7,2.49,7.42,10.11,11.1,20.36,9.43,9.29-1.48,21.9-8.53,31.09-15.86-.12.44-2.61,6.14-3.91,9.12-.43,1.06.27,1.59,1.31,1.48,1.04-.14,9.82-1.35,11.29-1.53,1.42-.24,1.89-.97,2.15-1.55.22-.53,7.2-17.09,7.2-17.09,2.69-7.06,18.14-27.01,30.05-34.6.89-.51,1.74-.85,2.34-.94,1.48-.29,2,.68,1.81,2.13-.63,5.3-9.36,13.81-18.45,21.69-3.84,3.27-5.66,4.98-6.12,8.68-.5,4.3,1.07,18.81,12.71,16.97,6.05-.97,16.13-6.87,26.07-16.85-.15.63-.36,1.31-.39,1.86-.78,7.03,1.72,11.08,9.4,9.84,7.01-1.07,14.87-7.35,24.9-17.38,2.46,7.52,10.11,11.32,20.36,9.64,10.8-1.69,23.11-8.01,33.19-17.45,11.53,22.15,57.83-3.09,44.37-22.32-3.27-4.66-16.3-10.04-16.3-16.66,0-5.13,4.59-7.74,9.65-9.41,12.91-4.26,14.24,6.26,5.37,9.07-4.25,1.38-3.22,5.92,1.77,5.05,8.56-1.43,18.13-6,17.09-15.37-.9-8.12-12.67-11.49-27.32-6.12ZM140.81,138.89c.53-.46.85-.02.72.48-3.99,12.98-20.18,26.47-41.03,29.79-18.08,2.92-33.25-3.38-49.17-6.89-11.87,12.64-24.8,18.55-33.12,19.85-9.77,1.59-16.64-2.13-15.88-8.77,1.4-11.89,14.22-18.84,28.77-21.18,5-.77,10.33-1.02,15.64-1.06l30.9-70.4c-17.12,5.27-35.88-3.15-39.55-16.1-.19-.75-.12-1.84.84-2.85,5.87-5.82,11.1-11.27,16.25-16.97,1.52-1.67,1.88-.15,2.03.61,1.5,9.11,3.92,23.25,26.19,22.46l4.25-9.55c7.21-16.49,18.25-39.5,46.71-52.73,3.27-1.55,6.84-2.49,10.16-3.02,10.42-1.69,15.04,3.84,14.04,12.72-2.11,17.86-28.1,46.06-62.96,59.91l-25.85,58.66c-3.02,6.97-6.36,12.72-10.03,17.99,6.39.8,26.81,4.38,46.69,1.18,13.49-2.13,28.36-9.28,34.4-14.15ZM100.87,63.48c31.87-10.76,41.18-31.24,42.41-41.53.84-7.4-2.78-9.45-7.55-8.68-12.28,1.98-20.23,17.77-30.15,39.79l-4.71,10.42ZM41.37,160.45c-5.24-.55-9.16-.55-12.25-.05-6.43,1.06-9.07,4.45-9.43,7.37-.37,3.29,1.79,4.18,5.3,3.6,4.57-.73,11.1-4.38,16.37-10.91Z"/>
      <path class="cls-1" d="M300.25,32.83c.73-5.99,7.83-12.77,14.24-13.81,4.57-.75,8.01,1.31,7.45,6.28-.65,5.59-7.21,12.64-14.05,13.73-4.79.8-8.17-1.93-7.64-6.19ZM396.36,30.79c-25.96,9.38-29.49,26.16-11.49,37.57,8.7,5.56,7.35,14.84-5.17,16.97-10.42,1.79-12.28-3.74-8.02-10.1.99-1.38,1.26-1.76,1.79-2.54,1.81-2.71-2.49-4.37-6.33-.03-11.31,12.71-22.12,18.84-30.73,20.19-8.95,1.47-14.56-2.69-13.44-12.14,1.64-14,13.66-31.5,22.6-32.93,2.92-.48,4.57,1.07,4.13,4.98-.7,5.58-6.12,15.55-20.41,27.95-2.29,1.96-3.27,3.55-3.45,4.77-.15,1.45.96,2.27,2.63,2,.65-.09,1.48-.43,2.35-.97,15.33-8.9,32.57-25.41,33.87-36.51.78-6.39-3.5-11.78-13.86-10.08-23.11,3.67-41.17,27.35-43.35,46.08-.03.41,0,.78-.03,1.18-8.36,8.73-14,13.63-16.56,14.07-1.43.22-1.82-.65-1.64-2.3.14-.99.84-2.59,1.45-4.09,4.21-10.04,16.63-39.27,19.97-47.07.53-1.25-.56-1.77-1.45-1.6-.7.14-7.72,1.23-11.24,1.67-1.79.29-2.27.97-2.61,1.89-2.3,5.53-9.74,23.89-14.65,35.08-12.3,14.24-22,20.48-24.9,20.94-3.92.65-5.66-1.91-6.41-7.86-.05-.99-.31-2.56-.24-3.19.08-.6.51-.87,1.86-1.91,0,0,25.77-18.3,27.73-34.74.34-3.05-2.15-6.11-7.96-5.2-7.08,1.16-18.84,8.66-36.92,30.76,0,0,17.12-40.13,26.96-63.47.22-.55-.22-1.43-1.14-1.26-.97.14-10.23,1.52-11.75,1.72-1.52.22-2.15,1.3-2.42,1.96-4.86,11.2-19.65,47.68-30.71,73.65-10.81,12.13-21.78,19.68-30.2,21.03-8.92,1.42-14.56-2.73-13.46-12.19,1.55-12.96,12.62-31.11,23.23-32.79,4.18-.67,5.03,2.42,4.67,5.3-.7,5.99-4.48,6.97-5.53,7.14-.19.03-.65.12-1.06.17-2.08.34-3.53,2.39-3.7,3.82-.31,2.66,2.22,5.32,7.21,4.52,8.13-1.31,16.53-10.32,17.51-18.74.89-7.45-5.37-11.7-14.5-10.25-22.05,3.53-41.05,26.37-43.37,46.13-.05.5,0,.9,0,1.38-8.29,8.59-12.98,12.36-15.48,12.77-1.45.21-1.94-.9-1.74-2.56.65-5.25,17.24-41.42,21.13-49.83.51-1.14-.67-1.6-1.33-1.45-.68.14-10.28,1.53-11.51,1.76-1.16.19-1.89,1.13-2.1,1.59-10.78,23.38-30.25,55.71-35.97,56.62-1.69.26-2.54-1.21-2.11-4.93,1.26-10.51,14.21-38.88,18.71-48.33.39-.78-.03-1.81-1.35-1.59-1.36.22-10.45,1.6-11.49,1.81-1.04.17-1.72.82-2.1,1.57-3.36,7.37-19.49,41.78-20.52,50.39-.99,8.66,2.15,12.43,8.17,11.43,6.89-1.11,14.94-3.39,26.82-21.68-1.16,3.04-1.86,5.54-2.13,8.03-.73,5.97,1.71,9.43,8.8,8.3,5.78-.94,14.9-6.68,24.95-16.7,2.49,7.42,10.11,11.1,20.36,9.43,9.29-1.48,21.9-8.53,31.09-15.86-.12.44-2.61,6.14-3.91,9.12-.43,1.06.27,1.59,1.31,1.48,1.04-.14,9.82-1.35,11.29-1.53,1.42-.24,1.89-.97,2.15-1.55.22-.53,7.2-17.09,7.2-17.09,2.69-7.06,18.14-27.01,30.05-34.6.89-.51,1.74-.85,2.34-.94,1.48-.29,2,.68,1.81,2.13-.63,5.3-9.36,13.81-18.45,21.69-3.84,3.27-5.66,4.98-6.12,8.68-.5,4.3,1.07,18.81,12.71,16.97,6.05-.97,16.13-6.87,26.07-16.85-.15.63-.36,1.31-.39,1.86-.78,7.03,1.72,11.08,9.4,9.84,7.01-1.07,14.87-7.35,24.9-17.38,2.46,7.52,10.11,11.32,20.36,9.64,10.8-1.69,23.11-8.01,33.19-17.45,11.53,22.15,57.83-3.09,44.37-22.32-3.27-4.66-16.3-10.04-16.3-16.66,0-5.13,4.59-7.74,9.65-9.41,12.91-4.26,14.24,6.26,5.37,9.07-4.25,1.38-3.22,5.92,1.77,5.05,8.56-1.43,18.13-6,17.09-15.37-.9-8.12-12.67-11.49-27.32-6.12ZM140.81,138.89c.53-.46.85-.02.72.48-3.99,12.98-20.18,26.47-41.03,29.79-18.08,2.92-33.25-3.38-49.17-6.89-11.87,12.64-24.8,18.55-33.12,19.85-9.77,1.59-16.64-2.13-15.88-8.77,1.4-11.89,14.22-18.84,28.77-21.18,5-.77,10.33-1.02,15.64-1.06l30.9-70.4c-17.12,5.27-35.88-3.15-39.55-16.1-.19-.75-.12-1.84.84-2.85,5.87-5.82,11.1-11.27,16.25-16.97,1.52-1.67,1.88-.15,2.03.61,1.5,9.11,3.92,23.25,26.19,22.46l4.25-9.55c7.21-16.49,18.25-39.5,46.71-52.73,3.27-1.55,6.84-2.49,10.16-3.02,10.42-1.69,15.04,3.84,14.04,12.72-2.11,17.86-28.1,46.06-62.96,59.91l-25.85,58.66c-3.02,6.97-6.36,12.72-10.03,17.99,6.39.8,26.81,4.38,46.69,1.18,13.49-2.13,28.36-9.28,34.4-14.15ZM100.87,63.48c31.87-10.76,41.18-31.24,42.41-41.53.84-7.4-2.78-9.45-7.55-8.68-12.28,1.98-20.23,17.77-30.15,39.79l-4.71,10.42ZM41.37,160.45c-5.24-.55-9.16-.55-12.25-.05-6.43,1.06-9.07,4.45-9.43,7.37-.37,3.29,1.79,4.18,5.3,3.6,4.57-.73,11.1-4.38,16.37-10.91Z"/>
      <path class="cls-3" d="M281.06,58.33c-2.06,17.26-27.6,35.58-28.61,36.3l-.36.28c-.2.15-.42.32-.59.46.02.3.07.68.09.95.05.48.1.96.13,1.37.75,5.85,2.26,5.85,2.98,5.85.11,0,.24-.02.36-.03-.04-.27-.09-.51-.13-.79-.05-.99-.31-2.56-.24-3.19.08-.6.51-.87,1.86-1.91,0,0,25.77-18.3,27.73-34.74.23-2.02-.82-4.02-3.22-4.89,0,.12,0,.23,0,.34Z"/>
      <path class="cls-3" d="M271.5,105.84c-8.24,7.29-16.87,12.37-22.94,13.34-.79.13-1.57.19-2.32.19-.3,0-.58-.07-.87-.09,1.93,1.91,4.62,3.02,8.36,2.43,4.71-.76,11.87-4.54,19.5-10.87-.94-1.33-1.53-3-1.73-5Z"/>
      <path class="cls-3" d="M233.19,99.64c.56-4.54,2.88-6.71,6.9-10.15,10.48-9.09,16.36-15.6,17.49-19.4-.13.06-.27.14-.42.22-1.49.95-3.04,2.11-4.61,3.41-3.96,3.98-10.37,10.26-12.04,12.11-6.14,7.16-11.15,14.49-12.5,18.02,0,0-6.97,16.56-7.21,17.12-.71,1.61-2.02,2.59-3.98,2.92-.82.1-3.89.52-6.64.9-.26.6-.51,1.18-.73,1.67-.43,1.06.27,1.59,1.31,1.48,1.04-.14,9.82-1.35,11.29-1.53,1.42-.24,1.89-.97,2.15-1.55.22-.53,7.2-17.09,7.2-17.09.38-.99,1.02-2.24,1.85-3.66-.19-1.95-.16-3.58-.06-4.48Z"/>
      <path class="cls-3" d="M410.19,67.47c1.14,3.85.7,8-1.42,12.07-5.16,9.9-19.28,17.96-31.48,17.96-1.8,0-3.51-.19-5.12-.53,16.03,11.08,51.44-10.79,39.46-27.93-.36-.52-.86-1.04-1.43-1.58Z"/>
      <path class="cls-3" d="M429.21,41.73c-.26-2.37-1.47-4.31-3.38-5.77.04.24.13.45.16.7,1.15,10.39-8.53,15.94-18.23,17.76-.36,1.61,1.2,3.23,4.37,2.68,8.56-1.43,18.13-6,17.09-15.37Z"/>
      <path class="cls-3" d="M202.02,124.01c-.36-.53-.87-1.66-.22-3.28l.56-1.29s.03-.06.04-.1c-7.67,5.11-17.18,10.04-25.29,11.33-1.74.28-3.45.43-5.08.43-1.8,0-3.5-.19-5.11-.53,3.73,2.65,9.03,3.66,15.34,2.63,6.03-.96,13.45-4.28,20.43-8.49-.26-.2-.5-.43-.69-.71Z"/>
      <path class="cls-3" d="M361.23,90.12c-9.81,8.52-21.72,14.51-32.31,16.16-1.72.28-3.41.43-5.02.43-1.77,0-3.44-.19-5.02-.52,3.73,2.63,8.97,3.65,15.2,2.63,9.91-1.55,21.07-7.04,30.63-15.21-1.3-.99-2.47-2.14-3.47-3.48Z"/>
      <path class="cls-3" d="M307.44,98.35c-10.42,10.12-17.44,14.71-23.79,15.68-1.03.17-2.02.25-2.92.25-.03,0-.05,0-.08,0,1.43,2.05,4.02,2.96,8.16,2.28,6.28-.96,13.25-6.12,21.83-14.38-1.26-1.1-2.34-2.37-3.2-3.83Z"/>
      <path class="cls-3" d="M215.79,74.75c-1.1,9.4-10.37,19.3-19.45,20.76-.56.09-1.11.12-1.65.14.89,1.73,3.19,2.97,6.81,2.39,5.57-.9,11.26-5.41,14.61-10.87.86-2.04,1.73-4.12,2.61-6.22.13-.55.23-1.11.29-1.66.44-3.66-.87-6.53-3.37-8.35.22,1.2.31,2.46.15,3.8Z"/>
      <path class="cls-3" d="M241.77,70.99c3.05-3.27,5.95-6.13,8.73-8.62,5.24-12.32,11.32-26.64,15.86-37.4.22-.55-.22-1.43-1.14-1.26-.35.05-1.81.27-3.59.53-6.1,14.45-14.37,33.9-19.85,46.76Z"/>
      <path class="cls-3" d="M160.29,76.03c-9.09,19.75-18.55,41.35-19.52,45.84,1.24-.63,3.34-2.17,6.79-5.39,5.27-12.93,14.69-33.46,17.5-39.53.51-1.14-.67-1.6-1.33-1.45-.25.05-1.67.27-3.44.53Z"/>
      <path class="cls-3" d="M160.86,15.57c-1.12,9.46-8.36,21.43-19.87,32.83-12.03,11.91-27.5,22.05-43.65,28.6l-25.47,57.79c-2.36,5.45-4.99,10.38-8.16,15.28,1.51.21,3.32.45,5.34.69,2.2-3.66,4.29-7.6,6.22-12.07l25.85-58.66c3.25-1.29,6.38-2.74,9.46-4.26.1-.05.19-.1.29-.14,29.85-14.8,51.3-39.37,53.21-55.51.55-4.87-.65-8.66-3.5-10.88.43,1.89.54,4.01.28,6.33Z"/>
      <path class="cls-3" d="M73.65,84.06c-2.19.38-4.43.57-6.68.57-4.03,0-7.92-.62-11.53-1.72,4.87,2.64,10.75,4.16,16.87,4.19l1.34-3.04Z"/>
      <path class="cls-3" d="M65.01,59.68c-1.24-3.23-1.8-6.58-2.27-9.44-.15-.77-.51-2.29-2.03-.61-.1.11-.19.21-.29.32.79,3.43,2.06,6.92,4.59,9.74Z"/>
      <path class="cls-3" d="M146.34,143.71c-1.58,1.28-3.77,2.71-6.37,4.16-6.85,10.51-20.74,20.65-39.1,23.58-3.2.52-6.51.78-9.83.78-10.44,0-20.08-2.54-29.4-5-3.12-.82-6.34-1.67-9.53-2.41-12.07,12.45-25.17,18.29-33.52,19.59-1.61.26-3.19.39-4.69.39-1.28,0-2.5-.1-3.64-.29,2.74,2.39,7.58,3.39,13.49,2.43,7.71-1.2,19.36-6.36,30.46-17.15.57-.56,13.9,4.18,28.54,5.68,8.04.82,17.1,1.88,26.54-.4,20.53-4.96,33.79-17.9,37.78-30.88.14-.49-.19-.94-.72-.48Z"/>
    </g>
  </g>
</svg>